<svg xmlns="http://www.w3.org/2000/svg" xmlns:xlink="http://www.w3.org/1999/xlink" width="500" zoomAndPan="magnify" viewBox="0 0 375 374.999991" height="500" preserveAspectRatio="xMidYMid meet" version="1.0"><defs><clipPath id="497bf94d8d"><path d="M 24 16.25 L 358 16.25 L 358 355 L 24 355 Z M 24 16.25 " clip-rule="nonzero"/></clipPath></defs><g clip-path="url(#497bf94d8d)"><path fill="#caddff" d="M 221.597656 16.328125 C 210.746094 16.3125 111.773438 17.839844 57.6875 100.433594 C 28.898438 144.402344 9.582031 216.296875 37.800781 255.46875 C 46.136719 267.039062 50.503906 264.492188 95.050781 291.875 C 156.195312 329.460938 155.910156 339.136719 181.222656 347.734375 C 214.175781 358.933594 262.863281 358.90625 299.332031 331.414062 C 340.71875 300.222656 346.835938 248.386719 352.964844 196.46875 C 358.980469 145.515625 365.078125 93.894531 333.082031 55.871094 C 299.910156 16.457031 246.597656 16.367188 221.597656 16.328125 " fill-opacity="1" fill-rule="nonzero"/></g><path fill="#99b9ff" d="M 303.824219 297.90625 L 345.5 297.90625 C 348.953125 297.90625 351.753906 295.125 351.753906 291.695312 L 351.753906 67.910156 C 351.753906 64.089844 348.632812 60.992188 344.785156 60.992188 L 239.183594 60.992188 L 303.824219 297.90625 " fill-opacity="1" fill-rule="nonzero"/><path fill="#99b9ff" d="M 351.753906 239.335938 L 351.753906 65.910156 C 351.753906 65.414062 351.699219 64.933594 351.605469 64.472656 L 351.753906 239.335938 " fill-opacity="1" fill-rule="nonzero"/><path fill="#5479f7" d="M 345.5 298.515625 L 303.824219 298.515625 C 303.488281 298.515625 303.214844 298.242188 303.214844 297.90625 C 303.214844 297.566406 303.488281 297.292969 303.824219 297.292969 L 345.5 297.292969 C 348.613281 297.292969 351.144531 294.773438 351.144531 291.675781 L 351.144531 67.242188 C 351.144531 63.75 348.292969 60.914062 344.785156 60.914062 L 239.183594 60.914062 C 238.84375 60.914062 238.574219 60.640625 238.574219 60.300781 C 238.574219 59.964844 238.84375 59.691406 239.183594 59.691406 L 344.785156 59.691406 C 348.964844 59.691406 352.363281 63.078125 352.363281 67.242188 L 352.363281 291.675781 C 352.363281 295.449219 349.285156 298.515625 345.5 298.515625 " fill-opacity="1" fill-rule="nonzero"/><path fill="#99b9ff" d="M 351.605469 64.46875 C 350.945312 61.304688 348.144531 58.929688 344.785156 58.929688 L 239.183594 58.929688 L 351.605469 64.46875 " fill-opacity="1" fill-rule="nonzero"/><path fill="#ffffff" d="M 302.476562 308.144531 C 302.03125 310.402344 300.050781 312.027344 297.753906 312.027344 L 54.242188 312.027344 C 51.210938 312.027344 48.933594 309.25 49.519531 306.273438 L 97.9375 62.746094 C 98.382812 60.488281 100.363281 58.863281 102.660156 58.863281 L 346.171875 58.863281 C 349.207031 58.863281 351.484375 61.636719 350.894531 64.617188 L 302.476562 308.144531 " fill-opacity="1" fill-rule="nonzero"/><path fill="#000000" d="M 321.738281 211.875 C 321.699219 211.875 321.660156 211.871094 321.617188 211.859375 C 321.289062 211.796875 321.074219 211.476562 321.140625 211.140625 L 350.296875 64.5 C 350.539062 63.261719 350.222656 61.988281 349.417969 61.011719 C 348.617188 60.035156 347.433594 59.476562 346.171875 59.476562 L 102.660156 59.476562 C 100.660156 59.476562 98.925781 60.902344 98.539062 62.867188 L 81.644531 142.375 C 81.574219 142.707031 81.25 142.917969 80.921875 142.847656 C 80.59375 142.773438 80.378906 142.453125 80.453125 142.117188 L 97.339844 62.621094 C 97.839844 60.09375 100.078125 58.25 102.660156 58.25 L 346.171875 58.25 C 347.800781 58.25 349.328125 58.972656 350.363281 60.234375 C 351.394531 61.496094 351.808594 63.136719 351.492188 64.738281 L 322.335938 211.382812 C 322.277344 211.671875 322.023438 211.875 321.738281 211.875 " fill-opacity="1" fill-rule="nonzero"/><path fill="#caddff" d="M 87.507812 214.171875 L 92.605469 187.351562 L 120.835938 187.351562 L 115.738281 214.171875 L 87.507812 214.171875 " fill-opacity="1" fill-rule="nonzero"/><path fill="#caddff" d="M 119.269531 214.171875 L 124.367188 187.351562 L 152.597656 187.351562 L 147.5 214.171875 L 119.269531 214.171875 " fill-opacity="1" fill-rule="nonzero"/><path fill="#caddff" d="M 151.027344 214.171875 L 156.125 187.351562 L 184.355469 187.351562 L 179.257812 214.171875 L 151.027344 214.171875 " fill-opacity="1" fill-rule="nonzero"/><path fill="#caddff" d="M 182.789062 214.171875 L 187.886719 187.351562 L 216.117188 187.351562 L 211.019531 214.171875 L 182.789062 214.171875 " fill-opacity="1" fill-rule="nonzero"/><path fill="#caddff" d="M 214.546875 214.171875 L 219.644531 187.351562 L 247.875 187.351562 L 242.777344 214.171875 L 214.546875 214.171875 " fill-opacity="1" fill-rule="nonzero"/><path fill="#99b9ff" d="M 246.308594 214.171875 L 251.402344 187.351562 L 279.632812 187.351562 L 274.539062 214.171875 L 246.308594 214.171875 " fill-opacity="1" fill-rule="nonzero"/><path fill="#99b9ff" d="M 278.066406 214.171875 L 283.164062 187.351562 L 311.394531 187.351562 L 306.296875 214.171875 L 278.066406 214.171875 " fill-opacity="1" fill-rule="nonzero"/><path fill="#caddff" d="M 81.863281 244.144531 L 86.960938 217.328125 L 115.191406 217.328125 L 110.09375 244.144531 L 81.863281 244.144531 " fill-opacity="1" fill-rule="nonzero"/><path fill="#caddff" d="M 113.621094 244.144531 L 118.71875 217.328125 L 146.953125 217.328125 L 141.855469 244.144531 L 113.621094 244.144531 " fill-opacity="1" fill-rule="nonzero"/><path fill="#caddff" d="M 145.382812 244.144531 L 150.480469 217.328125 L 178.710938 217.328125 L 173.613281 244.144531 L 145.382812 244.144531 " fill-opacity="1" fill-rule="nonzero"/><path fill="#caddff" d="M 177.144531 244.144531 L 182.238281 217.328125 L 210.472656 217.328125 L 205.371094 244.144531 L 177.144531 244.144531 " fill-opacity="1" fill-rule="nonzero"/><path fill="#caddff" d="M 208.902344 244.144531 L 214 217.328125 L 242.230469 217.328125 L 237.132812 244.144531 L 208.902344 244.144531 " fill-opacity="1" fill-rule="nonzero"/><path fill="#99b9ff" d="M 240.664062 244.144531 L 245.757812 217.328125 L 273.992188 217.328125 L 268.890625 244.144531 L 240.664062 244.144531 " fill-opacity="1" fill-rule="nonzero"/><path fill="#99b9ff" d="M 272.421875 244.144531 L 277.519531 217.328125 L 305.75 217.328125 L 300.652344 244.144531 L 272.421875 244.144531 " fill-opacity="1" fill-rule="nonzero"/><path fill="#caddff" d="M 98.800781 154.21875 L 103.898438 127.402344 L 132.128906 127.402344 L 127.03125 154.21875 L 98.800781 154.21875 " fill-opacity="1" fill-rule="nonzero"/><path fill="#caddff" d="M 130.574219 154.191406 L 135.671875 127.371094 L 163.902344 127.371094 L 158.804688 154.191406 L 130.574219 154.191406 " fill-opacity="1" fill-rule="nonzero"/><path fill="#caddff" d="M 162.320312 154.21875 L 167.417969 127.402344 L 195.648438 127.402344 L 190.550781 154.21875 L 162.320312 154.21875 " fill-opacity="1" fill-rule="nonzero"/><path fill="#caddff" d="M 194.082031 154.21875 L 199.179688 127.402344 L 227.410156 127.402344 L 222.308594 154.21875 L 194.082031 154.21875 " fill-opacity="1" fill-rule="nonzero"/><path fill="#caddff" d="M 225.839844 154.21875 L 230.9375 127.402344 L 259.167969 127.402344 L 254.070312 154.21875 L 225.839844 154.21875 " fill-opacity="1" fill-rule="nonzero"/><path fill="#99b9ff" d="M 257.601562 154.21875 L 262.695312 127.402344 L 290.929688 127.402344 L 285.828125 154.21875 L 257.601562 154.21875 " fill-opacity="1" fill-rule="nonzero"/><path fill="#99b9ff" d="M 289.359375 154.21875 L 294.457031 127.398438 L 322.6875 127.398438 L 317.589844 154.21875 L 289.359375 154.21875 " fill-opacity="1" fill-rule="nonzero"/><path fill="#caddff" d="M 93.15625 184.195312 L 98.253906 157.375 L 126.484375 157.375 L 121.386719 184.195312 L 93.15625 184.195312 " fill-opacity="1" fill-rule="nonzero"/><path fill="#caddff" d="M 124.914062 184.195312 L 130.011719 157.375 L 158.242188 157.375 L 153.144531 184.195312 L 124.914062 184.195312 " fill-opacity="1" fill-rule="nonzero"/><path fill="#caddff" d="M 156.675781 184.195312 L 161.773438 157.375 L 190.003906 157.375 L 184.90625 184.195312 L 156.675781 184.195312 " fill-opacity="1" fill-rule="nonzero"/><path fill="#caddff" d="M 188.433594 184.195312 L 193.53125 157.375 L 221.761719 157.375 L 216.664062 184.195312 L 188.433594 184.195312 " fill-opacity="1" fill-rule="nonzero"/><path fill="#caddff" d="M 220.195312 184.195312 L 225.289062 157.375 L 253.523438 157.375 L 248.421875 184.195312 L 220.195312 184.195312 " fill-opacity="1" fill-rule="nonzero"/><path fill="#99b9ff" d="M 283.335938 184.195312 L 288.433594 157.375 L 316.664062 157.375 L 311.566406 184.195312 L 283.335938 184.195312 " fill-opacity="1" fill-rule="nonzero"/><path fill="#99b9ff" d="M 251.953125 184.195312 L 257.050781 157.375 L 285.28125 157.375 L 280.183594 184.195312 L 251.953125 184.195312 " fill-opacity="1" fill-rule="nonzero"/><path fill="#000000" d="M 149.328125 59 C 148.992188 59 148.71875 58.726562 148.71875 58.386719 C 148.71875 53.875 147.253906 49.609375 144.492188 46.054688 C 144.285156 45.789062 144.332031 45.40625 144.597656 45.199219 C 144.863281 44.992188 145.246094 45.039062 145.453125 45.304688 C 148.386719 49.074219 149.9375 53.597656 149.9375 58.386719 C 149.9375 58.726562 149.664062 59 149.328125 59 " fill-opacity="1" fill-rule="nonzero"/><path fill="#000000" d="M 128.675781 79.6875 C 116.953125 79.6875 107.414062 70.132812 107.414062 58.386719 C 107.414062 46.644531 116.953125 37.089844 128.675781 37.089844 C 133.117188 37.089844 137.375 38.449219 140.980469 41.015625 C 141.257812 41.210938 141.320312 41.59375 141.125 41.871094 C 140.929688 42.144531 140.546875 42.210938 140.273438 42.015625 C 136.875 39.59375 132.863281 38.3125 128.675781 38.3125 C 117.625 38.3125 108.636719 47.316406 108.636719 58.386719 C 108.636719 69.457031 117.625 78.464844 128.675781 78.464844 C 129.015625 78.464844 129.289062 78.738281 129.289062 79.074219 C 129.289062 79.410156 129.015625 79.6875 128.675781 79.6875 " fill-opacity="1" fill-rule="nonzero"/><path fill="#000000" d="M 176.992188 59 C 176.65625 59 176.382812 58.726562 176.382812 58.386719 C 176.382812 53.765625 174.855469 49.417969 171.96875 45.820312 C 171.757812 45.558594 171.800781 45.171875 172.0625 44.960938 C 172.324219 44.75 172.710938 44.789062 172.921875 45.054688 C 175.941406 48.816406 177.605469 53.550781 177.605469 58.386719 C 177.605469 58.726562 177.332031 59 176.992188 59 " fill-opacity="1" fill-rule="nonzero"/><path fill="#000000" d="M 156.34375 79.6875 C 144.617188 79.6875 135.082031 70.132812 135.082031 58.386719 C 135.082031 46.644531 144.617188 37.089844 156.34375 37.089844 C 160.539062 37.089844 164.59375 38.3125 168.078125 40.625 C 168.359375 40.8125 168.433594 41.191406 168.25 41.472656 C 168.0625 41.757812 167.683594 41.832031 167.402344 41.644531 C 164.121094 39.464844 160.296875 38.3125 156.34375 38.3125 C 145.292969 38.3125 136.300781 47.316406 136.300781 58.386719 C 136.300781 69.457031 145.292969 78.464844 156.34375 78.464844 C 156.679688 78.464844 156.953125 78.738281 156.953125 79.074219 C 156.953125 79.410156 156.679688 79.6875 156.34375 79.6875 " fill-opacity="1" fill-rule="nonzero"/><path fill="#000000" d="M 204.65625 59 C 204.324219 59 204.046875 58.726562 204.046875 58.390625 C 204.046875 53.75 202.433594 49.230469 199.503906 45.652344 C 199.289062 45.394531 199.324219 45.007812 199.582031 44.792969 C 199.847656 44.578125 200.230469 44.617188 200.445312 44.878906 C 203.554688 48.671875 205.273438 53.46875 205.273438 58.390625 C 205.273438 58.726562 204.996094 59 204.65625 59 " fill-opacity="1" fill-rule="nonzero"/><path fill="#000000" d="M 184.007812 79.6875 C 172.285156 79.6875 162.746094 70.132812 162.746094 58.386719 C 162.746094 46.644531 172.285156 37.089844 184.007812 37.089844 C 188.378906 37.089844 192.578125 38.410156 196.152344 40.90625 C 196.429688 41.097656 196.5 41.480469 196.304688 41.757812 C 196.113281 42.03125 195.730469 42.101562 195.453125 41.90625 C 192.085938 39.554688 188.128906 38.3125 184.007812 38.3125 C 172.957031 38.3125 163.96875 47.316406 163.96875 58.386719 C 163.96875 69.457031 172.957031 78.464844 184.007812 78.464844 C 184.34375 78.464844 184.617188 78.738281 184.617188 79.074219 C 184.617188 79.410156 184.34375 79.6875 184.007812 79.6875 " fill-opacity="1" fill-rule="nonzero"/><path fill="#000000" d="M 232.324219 59 C 231.988281 59 231.714844 58.726562 231.714844 58.386719 C 231.714844 53.6875 230.058594 49.113281 227.050781 45.515625 C 226.835938 45.257812 226.871094 44.871094 227.128906 44.652344 C 227.386719 44.4375 227.773438 44.46875 227.988281 44.730469 C 231.179688 48.550781 232.933594 53.402344 232.933594 58.386719 C 232.933594 58.726562 232.664062 59 232.324219 59 " fill-opacity="1" fill-rule="nonzero"/><path fill="#000000" d="M 211.671875 79.6875 C 199.949219 79.6875 190.414062 70.132812 190.414062 58.386719 C 190.414062 46.644531 199.949219 37.089844 211.671875 37.089844 C 215.933594 37.089844 220.042969 38.347656 223.5625 40.726562 C 223.839844 40.917969 223.914062 41.296875 223.722656 41.578125 C 223.535156 41.855469 223.160156 41.929688 222.878906 41.742188 C 219.566406 39.5 215.6875 38.3125 211.671875 38.3125 C 200.625 38.3125 191.632812 47.316406 191.632812 58.386719 C 191.632812 69.457031 200.625 78.464844 211.671875 78.464844 C 212.011719 78.464844 212.285156 78.738281 212.285156 79.074219 C 212.285156 79.410156 212.011719 79.6875 211.671875 79.6875 " fill-opacity="1" fill-rule="nonzero"/><path fill="#000000" d="M 259.992188 59 C 259.652344 59 259.378906 58.726562 259.378906 58.390625 C 259.378906 53.808594 257.878906 49.496094 255.039062 45.914062 C 254.832031 45.652344 254.878906 45.265625 255.140625 45.054688 C 255.40625 44.847656 255.789062 44.890625 256 45.152344 C 259.011719 48.953125 260.597656 53.53125 260.597656 58.390625 C 260.597656 58.726562 260.324219 59 259.992188 59 " fill-opacity="1" fill-rule="nonzero"/><path fill="#000000" d="M 239.339844 79.6875 C 227.617188 79.6875 218.078125 70.132812 218.078125 58.386719 C 218.078125 46.644531 227.617188 37.089844 239.339844 37.089844 C 243.582031 37.089844 247.679688 38.339844 251.1875 40.699219 C 251.46875 40.890625 251.542969 41.269531 251.355469 41.550781 C 251.164062 41.832031 250.785156 41.90625 250.507812 41.714844 C 247.203125 39.492188 243.339844 38.3125 239.339844 38.3125 C 228.289062 38.3125 219.300781 47.316406 219.300781 58.386719 C 219.300781 69.457031 228.289062 78.464844 239.339844 78.464844 C 239.679688 78.464844 239.949219 78.738281 239.949219 79.074219 C 239.949219 79.410156 239.679688 79.6875 239.339844 79.6875 " fill-opacity="1" fill-rule="nonzero"/><path fill="#000000" d="M 287.65625 59 C 287.320312 59 287.046875 58.726562 287.046875 58.390625 C 287.046875 53.832031 285.558594 49.539062 282.75 45.96875 C 282.542969 45.703125 282.585938 45.316406 282.851562 45.109375 C 283.117188 44.898438 283.5 44.945312 283.707031 45.210938 C 286.691406 49 288.265625 53.554688 288.265625 58.390625 C 288.265625 58.726562 287.992188 59 287.65625 59 " fill-opacity="1" fill-rule="nonzero"/><path fill="#000000" d="M 267.003906 79.6875 C 255.285156 79.6875 245.746094 70.132812 245.746094 58.386719 C 245.746094 46.644531 255.285156 37.089844 267.003906 37.089844 C 271.152344 37.089844 275.171875 38.285156 278.625 40.546875 C 278.90625 40.734375 278.984375 41.113281 278.800781 41.394531 C 278.617188 41.679688 278.238281 41.757812 277.957031 41.570312 C 274.699219 39.441406 270.914062 38.3125 267.003906 38.3125 C 255.957031 38.3125 246.964844 47.316406 246.964844 58.386719 C 246.964844 69.457031 255.957031 78.464844 267.003906 78.464844 C 267.34375 78.464844 267.617188 78.738281 267.617188 79.074219 C 267.617188 79.410156 267.34375 79.6875 267.003906 79.6875 " fill-opacity="1" fill-rule="nonzero"/><path fill="#000000" d="M 315.324219 59 C 314.984375 59 314.710938 58.726562 314.710938 58.386719 C 314.710938 53.777344 313.113281 49.273438 310.210938 45.710938 C 310 45.449219 310.039062 45.0625 310.296875 44.851562 C 310.558594 44.636719 310.941406 44.675781 311.15625 44.9375 C 314.234375 48.71875 315.933594 53.496094 315.933594 58.386719 C 315.933594 58.726562 315.660156 59 315.324219 59 " fill-opacity="1" fill-rule="nonzero"/><path fill="#000000" d="M 294.671875 79.6875 C 282.949219 79.6875 273.410156 70.132812 273.410156 58.386719 C 273.410156 46.644531 282.949219 37.089844 294.671875 37.089844 C 298.800781 37.089844 302.804688 38.277344 306.25 40.519531 C 306.53125 40.703125 306.613281 41.085938 306.425781 41.367188 C 306.242188 41.652344 305.863281 41.730469 305.582031 41.546875 C 302.335938 39.433594 298.5625 38.3125 294.671875 38.3125 C 283.621094 38.3125 274.632812 47.316406 274.632812 58.386719 C 274.632812 69.457031 283.621094 78.464844 294.671875 78.464844 C 295.011719 78.464844 295.28125 78.738281 295.28125 79.074219 C 295.28125 79.410156 295.011719 79.6875 294.671875 79.6875 " fill-opacity="1" fill-rule="nonzero"/><path fill="#000000" d="M 322.335938 79.6875 C 310.617188 79.6875 301.074219 70.132812 301.074219 58.390625 C 301.074219 46.644531 310.617188 37.09375 322.335938 37.09375 C 334.0625 37.09375 343.597656 46.644531 343.597656 58.390625 C 343.597656 58.726562 343.324219 59 342.988281 59 C 342.652344 59 342.378906 58.726562 342.378906 58.390625 C 342.378906 47.320312 333.390625 38.316406 322.335938 38.316406 C 311.289062 38.316406 302.296875 47.320312 302.296875 58.390625 C 302.296875 69.457031 311.289062 78.464844 322.335938 78.464844 C 322.675781 78.464844 322.949219 78.738281 322.949219 79.074219 C 322.949219 79.414062 322.675781 79.6875 322.335938 79.6875 " fill-opacity="1" fill-rule="nonzero"/><path fill="#99b9ff" d="M 129.074219 83.46875 C 127.832031 83.46875 126.640625 82.941406 125.800781 82.027344 C 125.574219 81.777344 125.589844 81.390625 125.835938 81.160156 C 126.085938 80.933594 126.472656 80.949219 126.699219 81.199219 C 127.308594 81.863281 128.175781 82.242188 129.074219 82.242188 C 130.851562 82.242188 132.292969 80.796875 132.292969 79.015625 C 132.292969 77.242188 130.851562 75.789062 129.074219 75.789062 C 128.050781 75.789062 127.078125 76.285156 126.472656 77.117188 C 126.273438 77.390625 125.890625 77.449219 125.617188 77.25 C 125.347656 77.050781 125.289062 76.667969 125.484375 76.394531 C 126.320312 75.25 127.660156 74.566406 129.074219 74.566406 C 131.523438 74.566406 133.515625 76.5625 133.515625 79.015625 C 133.515625 81.472656 131.523438 83.46875 129.074219 83.46875 " fill-opacity="1" fill-rule="nonzero"/><path fill="#99b9ff" d="M 156.261719 83.46875 C 155.019531 83.46875 153.828125 82.941406 152.988281 82.023438 C 152.761719 81.777344 152.777344 81.390625 153.027344 81.160156 C 153.273438 80.933594 153.660156 80.949219 153.890625 81.199219 C 154.496094 81.863281 155.363281 82.242188 156.261719 82.242188 C 158.039062 82.242188 159.484375 80.796875 159.484375 79.015625 C 159.484375 77.242188 158.039062 75.789062 156.261719 75.789062 C 155.238281 75.789062 154.265625 76.285156 153.660156 77.117188 C 153.460938 77.390625 153.078125 77.449219 152.808594 77.25 C 152.535156 77.050781 152.476562 76.667969 152.675781 76.394531 C 153.507812 75.25 154.847656 74.566406 156.261719 74.566406 C 158.710938 74.566406 160.703125 76.5625 160.703125 79.015625 C 160.703125 81.472656 158.710938 83.46875 156.261719 83.46875 " fill-opacity="1" fill-rule="nonzero"/><path fill="#99b9ff" d="M 183.449219 83.46875 C 182.207031 83.46875 181.015625 82.941406 180.175781 82.027344 C 179.949219 81.777344 179.964844 81.390625 180.214844 81.160156 C 180.460938 80.933594 180.851562 80.949219 181.078125 81.199219 C 181.683594 81.863281 182.550781 82.242188 183.449219 82.242188 C 185.226562 82.242188 186.671875 80.796875 186.671875 79.015625 C 186.671875 77.242188 185.226562 75.789062 183.449219 75.789062 C 182.425781 75.789062 181.453125 76.285156 180.847656 77.117188 C 180.648438 77.390625 180.265625 77.449219 179.996094 77.25 C 179.722656 77.050781 179.664062 76.667969 179.863281 76.394531 C 180.695312 75.25 182.039062 74.566406 183.449219 74.566406 C 185.898438 74.566406 187.890625 76.5625 187.890625 79.015625 C 187.890625 81.472656 185.898438 83.46875 183.449219 83.46875 " fill-opacity="1" fill-rule="nonzero"/><path fill="#99b9ff" d="M 211.417969 83.46875 C 210.179688 83.46875 208.984375 82.941406 208.144531 82.027344 C 207.917969 81.777344 207.933594 81.390625 208.183594 81.160156 C 208.429688 80.933594 208.816406 80.949219 209.042969 81.199219 C 209.652344 81.863281 210.519531 82.242188 211.417969 82.242188 C 213.191406 82.242188 214.636719 80.796875 214.636719 79.015625 C 214.636719 77.242188 213.191406 75.789062 211.417969 75.789062 C 210.394531 75.789062 209.421875 76.285156 208.816406 77.117188 C 208.617188 77.390625 208.234375 77.449219 207.964844 77.25 C 207.691406 77.050781 207.632812 76.667969 207.832031 76.394531 C 208.664062 75.25 210.007812 74.566406 211.417969 74.566406 C 213.867188 74.566406 215.859375 76.5625 215.859375 79.015625 C 215.859375 81.472656 213.867188 83.46875 211.417969 83.46875 " fill-opacity="1" fill-rule="nonzero"/><path fill="#99b9ff" d="M 238.894531 83.46875 C 237.652344 83.46875 236.460938 82.941406 235.621094 82.027344 C 235.390625 81.777344 235.410156 81.390625 235.65625 81.160156 C 235.90625 80.933594 236.292969 80.949219 236.519531 81.199219 C 237.128906 81.863281 237.992188 82.242188 238.894531 82.242188 C 240.667969 82.242188 242.113281 80.796875 242.113281 79.015625 C 242.113281 77.242188 240.667969 75.789062 238.894531 75.789062 C 237.871094 75.789062 236.898438 76.285156 236.292969 77.117188 C 236.09375 77.390625 235.707031 77.449219 235.4375 77.25 C 235.164062 77.050781 235.105469 76.667969 235.304688 76.394531 C 236.140625 75.25 237.480469 74.566406 238.894531 74.566406 C 241.34375 74.566406 243.335938 76.5625 243.335938 79.015625 C 243.335938 81.472656 241.34375 83.46875 238.894531 83.46875 " fill-opacity="1" fill-rule="nonzero"/><path fill="#99b9ff" d="M 267.683594 83.46875 C 266.441406 83.46875 265.25 82.941406 264.40625 82.027344 C 264.179688 81.777344 264.199219 81.390625 264.445312 81.160156 C 264.695312 80.933594 265.082031 80.949219 265.308594 81.199219 C 265.917969 81.863281 266.78125 82.242188 267.683594 82.242188 C 269.457031 82.242188 270.902344 80.796875 270.902344 79.015625 C 270.902344 77.242188 269.457031 75.789062 267.683594 75.789062 C 266.65625 75.789062 265.683594 76.285156 265.082031 77.117188 C 264.882812 77.390625 264.496094 77.449219 264.226562 77.25 C 263.953125 77.050781 263.894531 76.667969 264.09375 76.394531 C 264.929688 75.25 266.269531 74.566406 267.683594 74.566406 C 270.132812 74.566406 272.125 76.5625 272.125 79.015625 C 272.125 81.472656 270.132812 83.46875 267.683594 83.46875 " fill-opacity="1" fill-rule="nonzero"/><path fill="#99b9ff" d="M 294.871094 83.46875 C 293.628906 83.46875 292.4375 82.941406 291.59375 82.027344 C 291.367188 81.777344 291.386719 81.390625 291.632812 81.160156 C 291.882812 80.933594 292.265625 80.949219 292.496094 81.199219 C 293.105469 81.863281 293.96875 82.242188 294.871094 82.242188 C 296.644531 82.242188 298.089844 80.796875 298.089844 79.015625 C 298.089844 77.242188 296.644531 75.789062 294.871094 75.789062 C 293.84375 75.789062 292.875 76.285156 292.265625 77.117188 C 292.070312 77.390625 291.6875 77.449219 291.414062 77.25 C 291.144531 77.050781 291.082031 76.667969 291.28125 76.394531 C 292.117188 75.25 293.457031 74.566406 294.871094 74.566406 C 297.320312 74.566406 299.3125 76.5625 299.3125 79.015625 C 299.3125 81.472656 297.320312 83.46875 294.871094 83.46875 " fill-opacity="1" fill-rule="nonzero"/><path fill="#99b9ff" d="M 322.058594 83.464844 C 320.820312 83.464844 319.625 82.941406 318.785156 82.023438 C 318.558594 81.773438 318.574219 81.390625 318.824219 81.160156 C 319.070312 80.933594 319.457031 80.949219 319.6875 81.195312 C 320.292969 81.863281 321.160156 82.242188 322.058594 82.242188 C 323.835938 82.242188 325.28125 80.796875 325.28125 79.015625 C 325.28125 77.238281 323.835938 75.789062 322.058594 75.789062 C 321.035156 75.789062 320.0625 76.285156 319.457031 77.113281 C 319.257812 77.390625 318.875 77.445312 318.601562 77.246094 C 318.332031 77.046875 318.273438 76.664062 318.472656 76.394531 C 319.304688 75.25 320.644531 74.566406 322.058594 74.566406 C 324.507812 74.566406 326.5 76.5625 326.5 79.015625 C 326.5 81.472656 324.507812 83.464844 322.058594 83.464844 " fill-opacity="1" fill-rule="nonzero"/><path fill="#5479f7" d="M 203.84375 176.640625 C 203.660156 176.640625 203.480469 176.625 203.292969 176.589844 C 202.246094 176.390625 201.382812 175.648438 201.03125 174.644531 L 197.90625 166.484375 C 197.503906 165.429688 198.027344 164.253906 199.078125 163.847656 C 200.128906 163.445312 201.304688 163.972656 201.707031 165.023438 L 204.078125 171.214844 L 211.433594 159.449219 C 212.03125 158.496094 213.285156 158.207031 214.238281 158.804688 C 215.191406 159.402344 215.480469 160.660156 214.882812 161.613281 L 206.234375 175.449219 L 206.148438 175.550781 C 205.578125 176.246094 204.726562 176.640625 203.84375 176.640625 " fill-opacity="1" fill-rule="nonzero"/><path fill="#000000" d="M 38.621094 111.0625 C 38.546875 111.0625 38.472656 111.050781 38.398438 111.019531 C 38.085938 110.898438 37.929688 110.542969 38.050781 110.226562 C 47.453125 86.074219 63.640625 65.371094 84.867188 50.347656 C 85.671875 49.777344 86.5 49.203125 87.328125 48.644531 C 87.609375 48.457031 87.988281 48.527344 88.175781 48.808594 C 88.363281 49.089844 88.292969 49.46875 88.011719 49.65625 C 87.191406 50.210938 86.367188 50.78125 85.570312 51.34375 C 64.539062 66.230469 48.503906 86.746094 39.191406 110.671875 C 39.097656 110.914062 38.867188 111.0625 38.621094 111.0625 " fill-opacity="1" fill-rule="nonzero"/><path fill="#000000" d="M 37.367188 114.421875 C 37.296875 114.421875 37.230469 114.410156 37.160156 114.382812 C 36.84375 114.269531 36.679688 113.921875 36.792969 113.601562 C 37.191406 112.488281 37.613281 111.355469 38.050781 110.226562 C 38.175781 109.914062 38.53125 109.757812 38.84375 109.878906 C 39.15625 110.003906 39.3125 110.355469 39.191406 110.671875 C 38.757812 111.789062 38.335938 112.910156 37.941406 114.015625 C 37.851562 114.265625 37.617188 114.421875 37.367188 114.421875 " fill-opacity="1" fill-rule="nonzero"/><path fill="#000000" d="M 29.605469 109.789062 C 29.539062 109.789062 29.472656 109.78125 29.40625 109.757812 C 29.089844 109.648438 28.917969 109.300781 29.027344 108.984375 C 34.136719 93.996094 42.429688 79.804688 53.679688 66.800781 C 64.257812 54.570312 77.460938 43.363281 92.929688 33.484375 C 93.214844 33.304688 93.589844 33.386719 93.773438 33.671875 C 93.953125 33.957031 93.871094 34.335938 93.585938 34.515625 C 61.90625 54.746094 39.984375 80.632812 30.183594 109.375 C 30.097656 109.632812 29.859375 109.789062 29.605469 109.789062 " fill-opacity="1" fill-rule="nonzero"/><path fill="#000000" d="M 34.671875 118.027344 L 36.441406 122.132812 L 38.644531 119.175781 Z M 36.300781 123.960938 C 36.273438 123.960938 36.25 123.957031 36.226562 123.957031 C 36.011719 123.929688 35.824219 123.792969 35.738281 123.589844 L 33.039062 117.320312 C 32.949219 117.105469 32.988281 116.855469 33.144531 116.675781 C 33.300781 116.5 33.542969 116.429688 33.769531 116.492188 L 39.832031 118.242188 C 40.023438 118.300781 40.175781 118.445312 40.242188 118.636719 C 40.304688 118.824219 40.269531 119.035156 40.152344 119.199219 L 36.789062 123.714844 C 36.671875 123.867188 36.488281 123.960938 36.300781 123.960938 " fill-opacity="1" fill-rule="nonzero"/><path fill="#5479f7" d="M 52.269531 282.453125 L 50.941406 297.652344 C 50.128906 306.949219 46.667969 315.816406 40.96875 323.203125 C 36.207031 329.367188 32.90625 336.421875 31.191406 343.847656 C 30.191406 348.164062 33.480469 352.285156 37.90625 352.285156 L 117.109375 352.285156 L 117.855469 352.128906 L 122.761719 351.925781 C 123.160156 351.925781 123.285156 350.753906 123.25 350.355469 C 122.785156 345.109375 119.996094 313.558594 119.367188 305.15625 C 118.679688 295.984375 123.847656 248.789062 118.484375 237.089844 C 114.574219 228.558594 105.234375 226.082031 99.246094 224.164062 C 94.71875 228.144531 91.121094 231.441406 84.625 231.441406 C 76.71875 231.441406 70.300781 227.265625 65.589844 221.636719 C 59.996094 223 54.773438 225.210938 51.292969 226.667969 C 43.089844 230.097656 37.953125 238.441406 38.777344 247.304688 C 40.28125 263.5 52.269531 282.453125 52.269531 282.453125 " fill-opacity="1" fill-rule="nonzero"/><path fill="#ffffff" d="M 131.746094 305.289062 C 131.746094 305.289062 142.011719 302.210938 148.902344 304.539062 C 148.902344 304.539062 149.730469 308.96875 152.652344 311.070312 C 155.574219 313.171875 162.917969 314.445312 164.113281 318.726562 C 165.3125 323.003906 150.328125 326.304688 145.15625 323.90625 C 139.988281 321.503906 135.492188 315.949219 130.46875 315.949219 C 125.449219 315.949219 131.746094 305.289062 131.746094 305.289062 " fill-opacity="1" fill-rule="nonzero"/><path fill="#000000" d="M 132.148438 305.8125 C 130.550781 308.574219 128.460938 313.292969 129.339844 314.835938 C 129.464844 315.050781 129.710938 315.335938 130.46875 315.335938 C 133.78125 315.335938 136.726562 317.496094 139.84375 319.78125 C 141.640625 321.097656 143.503906 322.460938 145.414062 323.351562 C 149.183594 325.097656 159.332031 323.546875 162.65625 320.714844 C 163.398438 320.082031 163.691406 319.46875 163.527344 318.890625 C 162.796875 316.285156 159.34375 314.832031 156.296875 313.550781 C 154.753906 312.898438 153.296875 312.289062 152.292969 311.566406 C 149.675781 309.683594 148.65625 306.15625 148.382812 305.011719 C 142.316406 303.152344 133.65625 305.390625 132.148438 305.8125 Z M 150.09375 325.320312 C 148.027344 325.320312 146.179688 325.050781 144.898438 324.460938 C 142.878906 323.519531 140.96875 322.121094 139.121094 320.769531 C 136.171875 318.601562 133.382812 316.558594 130.46875 316.558594 C 129.183594 316.558594 128.570312 315.953125 128.28125 315.441406 C 126.734375 312.726562 130.753906 305.761719 131.21875 304.980469 C 131.296875 304.847656 131.421875 304.746094 131.570312 304.703125 C 131.996094 304.574219 142.101562 301.597656 149.097656 303.960938 C 149.308594 304.03125 149.464844 304.210938 149.503906 304.425781 C 149.511719 304.46875 150.324219 308.640625 153.007812 310.570312 C 153.898438 311.214844 155.292969 311.800781 156.769531 312.421875 C 160.070312 313.808594 163.8125 315.386719 164.703125 318.5625 C 164.910156 319.300781 164.863281 320.4375 163.445312 321.648438 C 160.839844 323.871094 154.886719 325.320312 150.09375 325.320312 " fill-opacity="1" fill-rule="nonzero"/><path fill="#5479f7" d="M 65.414062 246.160156 L 75.800781 273.945312 C 77.949219 279.691406 82.464844 284.226562 88.195312 286.394531 L 132.558594 303.164062 L 130.710938 318.800781 C 130.710938 318.800781 71.753906 310.234375 61.890625 302.152344 C 52.660156 294.585938 42.25 261.296875 42.25 261.296875 L 65.414062 246.160156 " fill-opacity="1" fill-rule="nonzero"/><path fill="#caddff" d="M 117.429688 318.058594 C 117.386719 318.058594 117.347656 318.054688 117.304688 318.046875 C 115.761719 317.722656 114.148438 317.390625 112.492188 317.050781 C 93.648438 313.152344 67.839844 307.820312 61.503906 302.625 C 59.433594 300.929688 56.773438 297.621094 54.199219 293.546875 C 54.019531 293.261719 54.105469 292.882812 54.390625 292.703125 C 54.671875 292.523438 55.050781 292.609375 55.230469 292.894531 C 57.738281 296.863281 60.304688 300.0625 62.277344 301.679688 C 68.382812 306.683594 94.019531 311.980469 112.738281 315.851562 C 114.398438 316.195312 116.007812 316.527344 117.554688 316.847656 C 117.882812 316.917969 118.097656 317.242188 118.027344 317.574219 C 117.96875 317.863281 117.714844 318.058594 117.429688 318.058594 " fill-opacity="1" fill-rule="nonzero"/><path fill="#caddff" d="M 116.390625 296.886719 C 116.320312 296.886719 116.253906 296.875 116.1875 296.851562 L 87.992188 286.96875 C 82.085938 284.738281 77.4375 280.070312 75.230469 274.160156 L 64.84375 246.375 C 64.726562 246.058594 64.886719 245.707031 65.203125 245.589844 C 65.519531 245.472656 65.867188 245.628906 65.988281 245.945312 L 76.371094 273.730469 C 78.457031 279.308594 82.847656 283.714844 88.410156 285.820312 L 116.589844 295.699219 C 116.910156 295.808594 117.078125 296.160156 116.964844 296.476562 C 116.878906 296.726562 116.640625 296.886719 116.390625 296.886719 " fill-opacity="1" fill-rule="nonzero"/><path fill="#caddff" d="M 116.980469 348.960938 C 116.710938 348.960938 116.460938 348.777344 116.390625 348.503906 L 116.339844 348.316406 C 113.253906 336.5625 110.34375 325.464844 108.945312 316.160156 C 108.894531 315.828125 109.125 315.515625 109.460938 315.464844 C 109.792969 315.414062 110.101562 315.644531 110.152344 315.980469 C 111.539062 325.214844 114.445312 336.285156 117.523438 348.007812 L 117.570312 348.191406 C 117.65625 348.519531 117.460938 348.855469 117.136719 348.941406 C 117.085938 348.953125 117.03125 348.960938 116.980469 348.960938 " fill-opacity="1" fill-rule="nonzero"/><path fill="#caddff" d="M 106.902344 293.238281 C 106.582031 293.238281 106.3125 292.988281 106.292969 292.664062 C 105.160156 273.726562 107.242188 264.925781 107.332031 264.558594 C 107.410156 264.234375 107.738281 264.03125 108.066406 264.113281 C 108.394531 264.191406 108.597656 264.523438 108.515625 264.851562 C 108.496094 264.9375 106.394531 273.867188 107.511719 292.589844 C 107.53125 292.929688 107.273438 293.21875 106.9375 293.238281 C 106.925781 293.238281 106.914062 293.238281 106.902344 293.238281 " fill-opacity="1" fill-rule="nonzero"/><path fill="#caddff" d="M 87.082031 265.132812 C 86.929688 265.132812 86.777344 265.078125 86.660156 264.960938 C 86.414062 264.726562 86.410156 264.339844 86.644531 264.097656 C 88.8125 261.847656 90.003906 258.886719 90.003906 255.757812 C 90.003906 253.660156 89.457031 251.59375 88.417969 249.78125 C 88.25 249.488281 88.347656 249.117188 88.640625 248.945312 C 88.933594 248.777344 89.304688 248.878906 89.476562 249.171875 C 90.621094 251.167969 91.226562 253.445312 91.226562 255.757812 C 91.226562 259.203125 89.910156 262.46875 87.523438 264.945312 C 87.402344 265.070312 87.242188 265.132812 87.082031 265.132812 " fill-opacity="1" fill-rule="nonzero"/><path fill="#caddff" d="M 108.054688 265.175781 C 107.902344 265.175781 107.75 265.117188 107.632812 265.003906 C 107.390625 264.765625 107.382812 264.378906 107.617188 264.136719 C 110.375 261.273438 111.894531 257.503906 111.894531 253.527344 C 111.894531 250.851562 111.195312 248.222656 109.875 245.917969 C 109.707031 245.625 109.804688 245.25 110.097656 245.082031 C 110.390625 244.914062 110.761719 245.015625 110.929688 245.308594 C 112.359375 247.796875 113.113281 250.636719 113.113281 253.527344 C 113.113281 257.824219 111.476562 261.894531 108.496094 264.988281 C 108.375 265.109375 108.214844 265.175781 108.054688 265.175781 " fill-opacity="1" fill-rule="nonzero"/><path fill="#ffffff" d="M 103.992188 188.578125 C 103.902344 187.597656 99.191406 185.550781 98.125 184.304688 C 97.054688 183.058594 97.234375 181.183594 96.613281 179.492188 C 95.988281 177.800781 93.648438 175.738281 93.648438 175.738281 C 80.566406 159.898438 65.824219 177.40625 65.824219 177.40625 C 62.703125 181.773438 63.820312 188.191406 65.375 191.839844 C 68.382812 198.898438 76.644531 203.871094 76.644531 203.871094 C 76.734375 204.230469 76.804688 204.582031 76.867188 204.925781 C 78.042969 211.558594 72.707031 220.898438 66.167969 222.480469 C 66.105469 222.496094 66.050781 222.511719 65.988281 222.527344 C 70.226562 227.585938 76.574219 230.804688 83.683594 230.804688 C 89.519531 230.804688 94.839844 228.617188 98.90625 225.035156 C 96.90625 224.398438 95.035156 223.722656 93.484375 222.675781 C 87.757812 218.808594 91.808594 206.394531 93.230469 205.238281 C 94.65625 204.078125 101.328125 206.058594 102.785156 204.164062 C 104.933594 201.363281 101.769531 193.035156 101.769531 192.230469 C 101.769531 191.851562 102.292969 191.226562 102.828125 190.578125 C 103.425781 189.851562 104.039062 189.09375 103.992188 188.578125 " fill-opacity="1" fill-rule="nonzero"/><path fill="#000000" d="M 103.398438 188.691406 Z M 67.085938 222.855469 C 71.347656 227.53125 77.34375 230.195312 83.683594 230.195312 C 88.765625 230.195312 93.691406 228.457031 97.671875 225.273438 C 96.144531 224.753906 94.519531 224.113281 93.144531 223.179688 C 91.175781 221.851562 90.058594 219.441406 89.917969 216.207031 C 89.695312 211.242188 91.738281 205.664062 92.847656 204.761719 C 93.660156 204.097656 95.363281 204.203125 97.328125 204.324219 C 99.269531 204.445312 101.6875 204.589844 102.304688 203.789062 C 103.796875 201.84375 102.21875 196.242188 101.542969 193.851562 C 101.269531 192.882812 101.160156 192.480469 101.160156 192.230469 C 101.160156 191.667969 101.597656 191.109375 102.3125 190.238281 L 102.359375 190.1875 C 102.660156 189.820312 103.351562 188.984375 103.382812 188.667969 C 103.15625 188.28125 101.683594 187.40625 100.699219 186.820312 C 99.417969 186.058594 98.203125 185.335938 97.660156 184.703125 C 96.890625 183.800781 96.683594 182.664062 96.488281 181.566406 C 96.375 180.941406 96.257812 180.296875 96.039062 179.703125 C 95.476562 178.179688 93.265625 176.214844 93.246094 176.195312 C 93.222656 176.171875 93.199219 176.152344 93.179688 176.125 C 89.683594 171.894531 85.753906 169.738281 81.5 169.71875 C 81.480469 169.71875 81.460938 169.71875 81.441406 169.71875 C 73.378906 169.71875 66.664062 177.367188 66.304688 177.785156 C 63.21875 182.125 64.621094 188.511719 65.9375 191.601562 C 68.832031 198.398438 76.878906 203.296875 76.960938 203.34375 C 77.101562 203.429688 77.199219 203.566406 77.238281 203.726562 C 77.328125 204.085938 77.402344 204.449219 77.46875 204.816406 C 78.703125 211.785156 73.453125 220.730469 67.085938 222.855469 Z M 83.683594 231.417969 C 76.664062 231.417969 70.042969 228.320312 65.523438 222.921875 C 65.386719 222.757812 65.34375 222.539062 65.410156 222.335938 C 65.476562 222.136719 65.640625 221.984375 65.84375 221.933594 L 66.027344 221.886719 C 72.070312 220.421875 77.433594 211.601562 76.265625 205.03125 C 76.21875 204.773438 76.167969 204.511719 76.109375 204.257812 C 74.730469 203.390625 67.621094 198.671875 64.8125 192.082031 C 63.394531 188.75 61.90625 181.835938 65.328125 177.050781 C 65.335938 177.039062 65.347656 177.023438 65.359375 177.011719 C 65.652344 176.664062 72.632812 168.496094 81.4375 168.496094 C 81.460938 168.496094 81.484375 168.496094 81.507812 168.496094 C 86.125 168.515625 90.359375 170.8125 94.089844 175.308594 C 94.410156 175.597656 96.554688 177.566406 97.183594 179.28125 C 97.4375 179.976562 97.566406 180.671875 97.6875 181.347656 C 97.875 182.371094 98.035156 183.257812 98.585938 183.90625 C 99 184.386719 100.234375 185.121094 101.324219 185.769531 C 103.425781 187.019531 104.527344 187.710938 104.601562 188.523438 C 104.667969 189.246094 104.101562 189.992188 103.300781 190.964844 L 103.253906 191.019531 C 102.921875 191.425781 102.417969 192.035156 102.378906 192.25 C 102.390625 192.363281 102.558594 192.949219 102.71875 193.519531 C 103.5625 196.519531 105.136719 202.105469 103.269531 204.535156 C 102.261719 205.851562 99.714844 205.695312 97.253906 205.546875 C 95.832031 205.457031 94.0625 205.351562 93.617188 205.710938 C 92.929688 206.269531 90.921875 211.398438 91.136719 216.152344 C 91.261719 219.023438 92.167969 221.046875 93.824219 222.167969 C 95.234375 223.117188 96.949219 223.769531 99.089844 224.457031 C 99.300781 224.523438 99.457031 224.695312 99.503906 224.914062 C 99.546875 225.128906 99.472656 225.351562 99.308594 225.496094 C 94.972656 229.316406 89.421875 231.417969 83.683594 231.417969 " fill-opacity="1" fill-rule="nonzero"/><path fill="#000000" d="M 23.632812 181.183594 C 23.632812 169.589844 23.785156 159.191406 33.609375 154.574219 C 37.328125 152.828125 42.910156 150 47.285156 150 C 63.238281 150 76.167969 162.949219 76.167969 178.929688 C 76.167969 194.90625 63.238281 207.855469 47.285156 207.855469 C 39.882812 207.855469 35.53125 203.5625 30.417969 198.972656 C 24.519531 193.675781 23.632812 189.742188 23.632812 181.183594 " fill-opacity="1" fill-rule="nonzero"/><path fill="#000000" d="M 95.105469 173.921875 C 83.101562 160.769531 72.046875 168.886719 67.519531 173.417969 C 65.679688 175.265625 64.238281 177.496094 63.511719 180.003906 C 62.078125 184.921875 63.445312 189.222656 64.726562 192.234375 C 67.230469 198.105469 73.195312 202.597656 75.566406 204.214844 C 76.148438 204.609375 76.925781 204.546875 77.445312 204.070312 C 78.835938 202.804688 79.996094 201.59375 80.976562 200.441406 C 81.441406 199.890625 81.308594 199.0625 80.6875 198.699219 C 80.519531 198.597656 80.351562 198.488281 80.191406 198.367188 C 78.015625 196.753906 77.394531 193.898438 78.804688 191.992188 C 80.214844 190.085938 83.121094 189.847656 85.296875 191.464844 C 85.449219 191.574219 85.589844 191.695312 85.726562 191.816406 C 86.808594 187.847656 86.433594 184.585938 87.914062 181.535156 C 90.015625 177.207031 93.804688 176.570312 95.621094 176.527344 C 96.386719 175.609375 95.105469 173.921875 95.105469 173.921875 " fill-opacity="1" fill-rule="nonzero"/><path fill="#ffffff" d="M 166.496094 306.042969 C 166.496094 306.042969 151.828125 301.453125 150.402344 301.679688 C 148.980469 301.90625 147.179688 304.457031 143.582031 306.257812 C 139.988281 308.0625 137.289062 309.113281 138.039062 310.6875 C 138.703125 312.089844 145.292969 311.886719 150.011719 310.089844 C 150.960938 309.722656 152.042969 310.027344 152.691406 310.8125 C 154.269531 312.738281 161.527344 316.410156 168.101562 316.617188 L 166.496094 306.042969 " fill-opacity="1" fill-rule="nonzero"/><path fill="#000000" d="M 150.84375 309.324219 C 151.71875 309.324219 152.578125 309.710938 153.164062 310.425781 C 154.613281 312.195312 161.308594 315.535156 167.386719 315.96875 L 165.949219 306.515625 C 159.066406 304.367188 151.40625 302.175781 150.492188 302.285156 C 149.988281 302.363281 149.234375 302.988281 148.367188 303.710938 C 147.230469 304.652344 145.8125 305.824219 143.855469 306.804688 C 143.414062 307.027344 142.988281 307.238281 142.574219 307.4375 C 139.859375 308.769531 138.210938 309.628906 138.589844 310.425781 C 138.984375 311.191406 144.78125 311.429688 149.792969 309.515625 C 150.136719 309.386719 150.492188 309.324219 150.84375 309.324219 Z M 168.101562 317.230469 C 168.09375 317.230469 168.089844 317.230469 168.082031 317.230469 C 161.238281 317.011719 153.816406 313.148438 152.21875 311.203125 C 151.730469 310.609375 150.933594 310.390625 150.226562 310.65625 C 146.023438 312.261719 138.484375 313.050781 137.488281 310.949219 C 136.570312 309.019531 138.863281 307.894531 142.039062 306.339844 C 142.445312 306.140625 142.871094 305.929688 143.3125 305.710938 C 145.140625 304.796875 146.496094 303.671875 147.585938 302.769531 C 148.679688 301.863281 149.464844 301.210938 150.308594 301.078125 C 151.769531 300.851562 163.207031 304.375 166.679688 305.460938 C 166.902344 305.53125 167.066406 305.71875 167.101562 305.953125 L 168.707031 316.527344 C 168.730469 316.707031 168.679688 316.886719 168.558594 317.023438 C 168.441406 317.15625 168.277344 317.230469 168.101562 317.230469 " fill-opacity="1" fill-rule="nonzero"/><path fill="#000000" d="M 326.421875 236.503906 C 315.097656 219.820312 278.34375 212.449219 278.308594 212.4375 C 275.542969 214.292969 258.375 215.464844 255.121094 213.941406 C 254.800781 214.125 224.632812 222.976562 215.613281 235.191406 C 207.609375 246.035156 209.632812 282.023438 201.890625 288.707031 C 194.628906 294.980469 166.148438 304.449219 166.148438 304.449219 L 168.222656 319.464844 C 168.222656 319.464844 209.605469 315.511719 212.503906 314.929688 C 215.402344 314.351562 225.832031 312.027344 228.152344 303.128906 C 228.816406 300.570312 229.789062 295.339844 230.832031 289.1875 L 237.558594 337.390625 L 238.09375 347.027344 C 238.183594 348.671875 239.300781 350.082031 240.882812 350.519531 C 251.738281 353.515625 269.484375 353.3125 281.925781 352.074219 C 285.773438 351.691406 289.527344 350.664062 293.050781 349.058594 L 299.316406 346.207031 C 300.726562 345.566406 301.671875 344.207031 301.789062 342.664062 L 307.546875 267.28125 C 307.546875 267.28125 308.863281 270.707031 310.773438 275.925781 C 318.460938 296.984375 330.632812 242.703125 326.421875 236.503906 " fill-opacity="1" fill-rule="nonzero"/><path fill="#caddff" d="M 231.3125 294.585938 C 231 294.585938 230.734375 294.347656 230.707031 294.027344 C 229.929688 285.042969 228.335938 277.121094 226.484375 267.945312 C 225.949219 265.28125 225.394531 262.53125 224.828125 259.601562 C 224.765625 259.269531 224.980469 258.949219 225.3125 258.882812 C 225.644531 258.820312 225.964844 259.039062 226.03125 259.371094 C 226.59375 262.292969 227.148438 265.042969 227.683594 267.703125 C 229.539062 276.914062 231.140625 284.871094 231.921875 293.921875 C 231.949219 294.261719 231.703125 294.554688 231.367188 294.585938 C 231.347656 294.585938 231.332031 294.585938 231.3125 294.585938 " fill-opacity="1" fill-rule="nonzero"/><path fill="#caddff" d="M 262.378906 278.554688 C 262.132812 278.554688 261.898438 278.398438 261.808594 278.152344 L 254.796875 259.027344 C 254.683594 258.710938 254.84375 258.359375 255.164062 258.242188 C 255.476562 258.125 255.828125 258.289062 255.945312 258.605469 L 262.953125 277.730469 C 263.070312 278.046875 262.90625 278.398438 262.589844 278.515625 C 262.519531 278.542969 262.449219 278.554688 262.378906 278.554688 " fill-opacity="1" fill-rule="nonzero"/><path fill="#000000" d="M 250.191406 177.128906 L 250.199219 177.128906 Z M 249.835938 171.8125 C 249.492188 171.8125 249.035156 172.019531 248.542969 172.402344 C 247.753906 173.027344 246.992188 174.019531 246.394531 175.191406 C 245.796875 176.367188 245.449219 177.570312 245.414062 178.578125 C 245.382812 179.394531 245.570312 179.988281 245.917969 180.164062 C 246.597656 180.511719 248.347656 179.417969 249.648438 176.851562 C 250.246094 175.675781 250.59375 174.472656 250.628906 173.464844 C 250.660156 172.648438 250.472656 172.050781 250.125 171.875 C 250.042969 171.832031 249.941406 171.8125 249.835938 171.8125 Z M 246.203125 181.453125 C 245.90625 181.453125 245.625 181.386719 245.363281 181.257812 C 244.558594 180.847656 244.144531 179.878906 244.191406 178.535156 C 244.234375 177.351562 244.628906 175.96875 245.304688 174.636719 C 245.980469 173.308594 246.863281 172.175781 247.792969 171.441406 C 248.847656 170.609375 249.871094 170.375 250.679688 170.785156 C 251.480469 171.195312 251.898438 172.164062 251.851562 173.507812 C 251.808594 174.691406 251.414062 176.074219 250.738281 177.40625 C 249.476562 179.886719 247.667969 181.453125 246.203125 181.453125 " fill-opacity="1" fill-rule="nonzero"/><path fill="#ffffff" d="M 265.15625 220.496094 C 268.523438 220.496094 271.761719 219.949219 274.792969 218.957031 C 277.535156 218.0625 280.117188 216.8125 282.46875 215.234375 C 272.238281 211.636719 275.84375 196.039062 275.84375 196.039062 C 283.570312 178.996094 277.558594 168.132812 268.433594 165.875 C 255.472656 162.667969 253.832031 170.207031 253.832031 170.207031 C 252.851562 172.234375 250.558594 176.953125 249.671875 177.496094 C 248.585938 178.164062 245.988281 178.832031 245.5625 179.375 C 245.140625 179.921875 245.382812 181.675781 247.011719 183.1875 C 247.011719 183.1875 242.300781 193.054688 243.871094 196.019531 C 245.445312 198.988281 256.625 201.46875 256.625 201.46875 C 256.625 201.46875 259.25 213.453125 251.984375 217.558594 C 254.746094 218.851562 257.726562 219.757812 260.855469 220.191406 C 262.261719 220.386719 263.699219 220.496094 265.15625 220.496094 " fill-opacity="1" fill-rule="nonzero"/><path fill="#000000" d="M 253.261719 217.457031 C 255.726562 218.503906 258.304688 219.21875 260.941406 219.585938 C 262.367188 219.78125 263.78125 219.882812 265.15625 219.882812 C 268.359375 219.882812 271.539062 219.375 274.605469 218.375 C 276.917969 217.621094 279.117188 216.605469 281.15625 215.351562 C 271.898438 210.921875 275.214844 196.058594 275.246094 195.902344 C 275.257812 195.863281 275.273438 195.824219 275.285156 195.789062 C 279.1875 187.175781 279.832031 179.320312 277.101562 173.667969 C 275.324219 169.992188 272.191406 167.433594 268.289062 166.46875 C 263.460938 165.273438 259.578125 165.472656 257.058594 167.046875 C 254.871094 168.410156 254.433594 170.320312 254.429688 170.335938 C 254.417969 170.386719 254.402344 170.433594 254.382812 170.476562 C 251.972656 175.445312 250.746094 177.558594 249.992188 178.019531 C 249.457031 178.347656 248.636719 178.660156 247.847656 178.953125 C 247.199219 179.199219 246.222656 179.566406 246.042969 179.757812 C 245.878906 179.992188 245.984375 181.398438 247.429688 182.738281 C 247.625 182.921875 247.683594 183.210938 247.566406 183.453125 C 246.292969 186.121094 243.242188 193.527344 244.414062 195.734375 C 245.59375 197.964844 253.722656 200.199219 256.753906 200.871094 C 256.988281 200.921875 257.167969 201.105469 257.222656 201.335938 C 257.328125 201.824219 259.632812 212.742188 253.261719 217.457031 Z M 265.15625 221.105469 C 263.726562 221.105469 262.253906 221 260.773438 220.796875 C 257.652344 220.363281 254.605469 219.460938 251.726562 218.113281 C 251.519531 218.015625 251.386719 217.8125 251.375 217.582031 C 251.367188 217.355469 251.484375 217.136719 251.683594 217.027344 C 257.773438 213.585938 256.453125 204 256.097656 201.976562 C 253.867188 201.457031 244.867188 199.207031 243.335938 196.304688 C 241.796875 193.410156 245.324219 185.382812 246.28125 183.316406 C 244.792969 181.742188 244.441406 179.828125 245.082031 178.996094 C 245.40625 178.582031 246.144531 178.289062 247.417969 177.8125 C 248.152344 177.53125 248.917969 177.242188 249.355469 176.976562 C 249.699219 176.761719 250.648438 175.371094 253.253906 169.996094 C 253.371094 169.5625 254.027344 167.492188 256.414062 166.007812 C 259.257812 164.230469 263.355469 163.988281 268.578125 165.28125 C 272.84375 166.335938 276.261719 169.125 278.199219 173.136719 C 281.085938 179.109375 280.457031 187.308594 276.425781 196.234375 C 276.207031 197.246094 273.375 211.386719 282.671875 214.65625 C 282.886719 214.734375 283.046875 214.925781 283.074219 215.15625 C 283.101562 215.382812 283 215.613281 282.808594 215.742188 C 280.410156 217.347656 277.777344 218.625 274.984375 219.539062 C 271.796875 220.578125 268.488281 221.105469 265.15625 221.105469 " fill-opacity="1" fill-rule="nonzero"/><path fill="#000000" d="M 275.699219 161.214844 C 272.441406 160.277344 268.625 160.464844 267.0625 159.777344 C 264.535156 158.664062 264.855469 155.667969 261.210938 155.054688 C 258.007812 154.515625 254.957031 154.855469 253.113281 157.191406 C 252.808594 157.582031 252.53125 158.023438 252.296875 158.527344 C 249.152344 165.300781 252.371094 168.980469 253.832031 170.207031 C 253.832031 170.207031 263.257812 175.792969 264.839844 177.300781 C 266.316406 178.710938 267.925781 181.902344 266.527344 186.195312 C 266.347656 186.738281 266.546875 187.339844 267.023438 187.664062 L 267.042969 187.679688 C 267.613281 188.066406 268.382812 187.964844 268.816406 187.4375 C 270.1875 185.777344 273.160156 182.597656 275.074219 183.554688 C 277.410156 184.726562 277.613281 191.109375 272.589844 191.753906 C 271.679688 191.871094 271.148438 192.832031 271.515625 193.671875 C 272.09375 194.996094 273.308594 196.457031 275.84375 196.039062 C 275.84375 196.039062 287.074219 189.398438 289.1875 179.546875 C 291.300781 169.699219 280.03125 162.46875 275.699219 161.214844 " fill-opacity="1" fill-rule="nonzero"/><path fill="#000000" d="M 256.550781 174.417969 C 255.320312 174.417969 253.753906 175.667969 252.808594 177.53125 C 251.667969 179.777344 251.777344 182.222656 253.050781 182.871094 C 253.625 183.164062 254.386719 183.054688 255.191406 182.5625 C 256.09375 182.007812 256.910156 181.070312 257.496094 179.917969 C 258.082031 178.765625 258.355469 177.550781 258.269531 176.5 C 258.191406 175.554688 257.832031 174.875 257.257812 174.582031 C 257.039062 174.472656 256.800781 174.417969 256.550781 174.417969 Z M 253.75 184.253906 C 253.304688 184.253906 252.882812 184.160156 252.496094 183.960938 C 250.570312 182.980469 250.230469 179.914062 251.71875 176.976562 C 253.210938 174.042969 255.882812 172.511719 257.808594 173.492188 C 258.777344 173.984375 259.371094 175.015625 259.488281 176.398438 C 259.589844 177.675781 259.269531 179.121094 258.585938 180.472656 C 257.898438 181.828125 256.921875 182.9375 255.832031 183.605469 C 255.121094 184.039062 254.414062 184.253906 253.75 184.253906 " fill-opacity="1" fill-rule="nonzero"/><path fill="#000000" d="M 252.363281 177.472656 C 252.132812 177.472656 251.910156 177.339844 251.808594 177.117188 C 251.796875 177.09375 251.425781 176.335938 250.835938 176.347656 C 250.5 176.375 250.210938 176.101562 250.199219 175.765625 C 250.183594 175.425781 250.445312 175.140625 250.785156 175.128906 C 251.929688 175.082031 252.664062 176.039062 252.921875 176.613281 C 253.0625 176.921875 252.921875 177.28125 252.613281 177.421875 C 252.53125 177.457031 252.449219 177.472656 252.363281 177.472656 " fill-opacity="1" fill-rule="nonzero"/><path fill="#000000" d="M 269.746094 183.640625 C 269.660156 183.640625 269.574219 183.621094 269.492188 183.582031 L 258.601562 178.554688 C 258.292969 178.414062 258.160156 178.050781 258.300781 177.746094 C 258.441406 177.4375 258.804688 177.300781 259.113281 177.445312 L 270 182.472656 C 270.308594 182.613281 270.441406 182.976562 270.300781 183.28125 C 270.199219 183.507812 269.976562 183.640625 269.746094 183.640625 " fill-opacity="1" fill-rule="nonzero"/><path fill="#ffffff" d="M 271.414062 305.808594 L 305.195312 266.132812 C 306.058594 265.121094 307.570312 265.003906 308.582031 265.863281 L 360.359375 310.105469 C 361.367188 310.964844 361.488281 312.480469 360.628906 313.496094 L 326.847656 353.167969 C 325.984375 354.179688 324.46875 354.300781 323.460938 353.4375 L 271.683594 309.199219 C 270.675781 308.339844 270.554688 306.820312 271.414062 305.808594 " fill-opacity="1" fill-rule="nonzero"/><path fill="#000000" d="M 271.417969 305.808594 L 271.421875 305.808594 Z M 307.027344 265.902344 C 306.980469 265.902344 306.929688 265.902344 306.882812 265.90625 C 306.40625 265.945312 305.972656 266.164062 305.664062 266.53125 L 271.878906 306.207031 C 271.570312 306.570312 271.421875 307.035156 271.457031 307.511719 C 271.496094 307.988281 271.714844 308.421875 272.078125 308.734375 L 323.859375 352.972656 C 324.226562 353.285156 324.683594 353.429688 325.160156 353.398438 C 325.636719 353.359375 326.074219 353.136719 326.382812 352.769531 L 360.167969 313.097656 C 360.804688 312.34375 360.71875 311.210938 359.964844 310.570312 L 308.1875 266.332031 C 307.859375 266.050781 307.453125 265.902344 307.027344 265.902344 Z M 325.015625 354.625 C 324.300781 354.625 323.617188 354.371094 323.070312 353.902344 L 271.285156 309.664062 C 270.675781 309.140625 270.304688 308.410156 270.238281 307.605469 C 270.179688 306.804688 270.429688 306.027344 270.953125 305.414062 L 304.734375 265.734375 C 305.253906 265.125 305.984375 264.75 306.785156 264.6875 C 307.585938 264.621094 308.367188 264.875 308.976562 265.398438 L 360.757812 309.636719 C 362.019531 310.714844 362.171875 312.625 361.097656 313.890625 L 327.3125 353.566406 C 326.789062 354.179688 326.0625 354.550781 325.257812 354.613281 C 325.179688 354.621094 325.097656 354.625 325.015625 354.625 " fill-opacity="1" fill-rule="nonzero"/><path fill="#99b9ff" d="M 325.992188 346.335938 L 353.757812 313.726562 L 304.742188 271.847656 L 276.972656 304.460938 L 325.992188 346.335938 " fill-opacity="1" fill-rule="nonzero"/><path fill="#ffffff" d="M 278.5 293.015625 L 293.703125 275.160156 C 294.757812 273.925781 296.605469 273.777344 297.839844 274.832031 L 301.917969 278.316406 L 282.90625 300.644531 L 278.828125 297.160156 C 277.59375 296.105469 277.449219 294.25 278.5 293.015625 " fill-opacity="1" fill-rule="nonzero"/><path fill="#ffffff" d="M 281.132812 281.480469 C 280.609375 281.03125 280.546875 280.246094 280.992188 279.722656 C 281.441406 279.199219 282.222656 279.136719 282.746094 279.582031 C 283.269531 280.027344 283.332031 280.816406 282.882812 281.339844 C 282.4375 281.863281 281.652344 281.925781 281.132812 281.480469 Z M 279.429688 286.675781 L 284.21875 290.769531 L 292.390625 281.171875 L 287.601562 277.078125 C 284.957031 274.820312 280.984375 275.136719 278.726562 277.785156 C 276.46875 280.4375 276.785156 284.417969 279.429688 286.675781 " fill-opacity="1" fill-rule="nonzero"/><path fill="#ffffff" d="M 288.996094 309.398438 L 311.511719 282.957031 L 309.320312 281.089844 L 286.808594 307.53125 L 288.996094 309.398438 " fill-opacity="1" fill-rule="nonzero"/><path fill="#ffffff" d="M 293.480469 313.234375 L 315.996094 286.792969 L 313.808594 284.921875 L 291.292969 311.363281 L 293.480469 313.234375 " fill-opacity="1" fill-rule="nonzero"/><path fill="#ffffff" d="M 297.96875 317.070312 L 320.484375 290.625 L 318.296875 288.753906 L 295.78125 315.199219 L 297.96875 317.070312 " fill-opacity="1" fill-rule="nonzero"/><path fill="#ffffff" d="M 319.800781 339.117188 C 319.800781 339.117188 307.433594 353.082031 299.636719 351.125 C 291.847656 349.167969 293.578125 343.53125 293.578125 343.53125 L 305.554688 337.132812 C 305.554688 337.132812 294.492188 338.667969 295.734375 334.894531 C 296.371094 332.953125 297.328125 333.054688 299.835938 333.015625 C 306.339844 332.914062 318.402344 332.242188 318.402344 332.242188 L 319.800781 339.117188 " fill-opacity="1" fill-rule="nonzero"/><path fill="#000000" d="M 294.113281 343.941406 C 294.011719 344.476562 293.859375 345.875 294.652344 347.265625 C 295.519531 348.792969 297.246094 349.894531 299.789062 350.53125 C 306.605469 352.246094 317.515625 340.703125 319.140625 338.933594 L 317.910156 332.882812 C 315.511719 333.011719 305.515625 333.535156 299.847656 333.625 L 299.445312 333.632812 C 297.160156 333.660156 296.769531 333.707031 296.316406 335.085938 C 296.175781 335.519531 296.289062 335.734375 296.402344 335.871094 C 297.445312 337.121094 302.519531 336.9375 305.46875 336.527344 C 305.765625 336.488281 306.042969 336.664062 306.136719 336.945312 C 306.230469 337.226562 306.101562 337.535156 305.839844 337.671875 Z M 301.214844 351.921875 C 300.625 351.921875 300.050781 351.859375 299.492188 351.71875 C 296.601562 350.992188 294.613281 349.6875 293.578125 347.847656 C 292.320312 345.617188 292.96875 343.441406 293 343.351562 C 293.042969 343.195312 293.148438 343.066406 293.292969 342.992188 L 302.601562 338.019531 C 300.027344 338.144531 296.605469 338.027344 295.464844 336.652344 C 295.15625 336.28125 294.847656 335.640625 295.15625 334.703125 C 295.894531 332.453125 297.226562 332.4375 299.429688 332.40625 L 299.828125 332.402344 C 306.246094 332.300781 318.25 331.636719 318.371094 331.632812 C 318.675781 331.617188 318.9375 331.824219 319 332.121094 L 320.398438 338.992188 C 320.4375 339.179688 320.386719 339.378906 320.257812 339.523438 C 319.777344 340.0625 309.175781 351.921875 301.214844 351.921875 " fill-opacity="1" fill-rule="nonzero"/><path fill="#ffffff" d="M 306.601562 345.75 C 306.601562 345.75 303.777344 348.125 297.730469 350.5 L 306.601562 345.75 " fill-opacity="1" fill-rule="nonzero"/><path fill="#000000" d="M 297.734375 351.113281 C 297.488281 351.113281 297.257812 350.964844 297.164062 350.726562 C 297.039062 350.410156 297.195312 350.054688 297.511719 349.933594 C 303.371094 347.628906 306.183594 345.304688 306.210938 345.28125 C 306.472656 345.0625 306.855469 345.097656 307.070312 345.355469 C 307.289062 345.617188 307.253906 346 306.996094 346.21875 C 306.878906 346.320312 304.027344 348.6875 297.953125 351.070312 C 297.882812 351.097656 297.808594 351.113281 297.734375 351.113281 " fill-opacity="1" fill-rule="nonzero"/><path fill="#ffffff" d="M 304.507812 343.097656 C 304.507812 343.097656 300.800781 345.566406 294.484375 348.125 L 304.507812 343.097656 " fill-opacity="1" fill-rule="nonzero"/><path fill="#000000" d="M 294.488281 348.738281 C 294.246094 348.738281 294.015625 348.59375 293.917969 348.355469 C 293.792969 348.039062 293.945312 347.6875 294.257812 347.558594 C 300.445312 345.050781 304.136719 342.613281 304.171875 342.585938 C 304.453125 342.402344 304.832031 342.476562 305.019531 342.757812 C 305.207031 343.039062 305.128906 343.417969 304.851562 343.605469 C 304.695312 343.707031 301.015625 346.140625 294.714844 348.691406 C 294.640625 348.722656 294.5625 348.738281 294.488281 348.738281 " fill-opacity="1" fill-rule="nonzero"/><path fill="#000000" d="M 300.0625 224.023438 C 308.140625 224.160156 318.398438 227.234375 323.53125 233.488281 C 337.203125 250.128906 359.816406 284.574219 357.863281 305.058594 C 355.199219 333.035156 319.5625 342.171875 319.5625 342.171875 L 315.570312 330.074219 C 347.664062 301.632812 308.199219 262.933594 308.199219 262.933594 L 297.480469 223.976562 L 300.0625 224.023438 " fill-opacity="1" fill-rule="nonzero"/></svg>